PathFileType	4	(X/Y/Z)	C:/Users/opensim2020/Desktop/walking_exp_matlab/subject06_walking18_straight_01.trc	
DataRate	CameraRate	NumFrames	NumMarkers	Units	OrigDataRate	OrigDataStartFrame	OrigNumFrames	
100.00	100.00	5	47	mm	100.00	1166	396	
Frame#	Time	LFHD			RFHD			LBHD			RBHD			C7			T10			CLAV			STRN			RBAK			LSHO			LUPA			LELB			LFRM			LWRA			LWRB			LFIN			RSHO			RUPA			RELB			RFRM			RWRA			RWRB			RFIN			LASI			RASI			LPSI			RPSI			LTHI			LKNE			LTIB			LANK			LHEE			LTOE			RTHI			RKNE			RTIB			RANK			RHEE			RTOE			*39			*40			*41			*42			*43			*44			*45			*46			
		X1	Y1	Z1	X2	Y2	Z2	X3	Y3	Z3	X4	Y4	Z4	X5	Y5	Z5	X6	Y6	Z6	X7	Y7	Z7	X8	Y8	Z8	X9	Y9	Z9	X10	Y10	Z10	X11	Y11	Z11	X12	Y12	Z12	X13	Y13	Z13	X14	Y14	Z14	X15	Y15	Z15	X16	Y16	Z16	X17	Y17	Z17	X18	Y18	Z18	X19	Y19	Z19	X20	Y20	Z20	X21	Y21	Z21	X22	Y22	Z22	X23	Y23	Z23	X24	Y24	Z24	X25	Y25	Z25	X26	Y26	Z26	X27	Y27	Z27	X28	Y28	Z28	X29	Y29	Z29	X30	Y30	Z30	X31	Y31	Z31	X32	Y32	Z32	X33	Y33	Z33	X34	Y34	Z34	X35	Y35	Z35	X36	Y36	Z36	X37	Y37	Z37	X38	Y38	Z38	X39	Y39	Z39	X40	Y40	Z40	X41	Y41	Z41	X42	Y42	Z42	X43	Y43	Z43	X44	Y44	Z44	X45	Y45	Z45	X46	Y46	Z46	X47	Y47	Z47	

149	1.480	1400.68372	-20.66108	1676.64197	1531.50012	-14.36279	1660.14539	1404.11743	-152.74197	1619.93347	1533.24023	-145.37659	1608.72803	1456.21973	-149.09915	1461.08374	1460.05347	-182.58736	1132.13367	1445.71387	-40.08780	1384.07031	1428.50952	-2.88516	1208.03992	1535.52319	-216.80714	1287.66199	1290.32727	-107.52217	1422.34619	1216.67114	-100.57793	1220.69202	1207.17761	-91.16582	1107.83679	1187.79553	-36.39841	967.10516	1230.40381	49.57047	871.86560	1195.92139	-8.65082	850.98138	1196.36047	51.13121	782.44220	1609.76404	-72.48827	1410.99939	1693.07922	-96.47507	1208.85291	1699.59790	-82.22694	1087.29980	1713.75232	-65.83179	967.81049	1679.52332	-10.97663	827.61420	1719.83020	-63.71843	829.25006	1719.07056	-29.79524	751.44397	1328.86157	-17.36986	971.10413	1548.68848	11.42945	981.96967	1376.71265	-171.09563	995.30365	1542.84204	-143.46576	1005.48389	1290.10498	-55.67976	649.89948	1312.76038	-30.56731	489.63815	1328.84583	-203.47316	312.79056	1370.21423	-315.22266	182.94460	1421.32397	-351.38034	191.61375	1356.41162	-225.50143	72.41885	1610.50842	-31.59025	647.66211	1587.66040	-30.13420	521.73859	1582.80664	-70.07393	257.07410	1529.88892	-70.32334	70.54165	1486.63452	-109.98179	46.13621	1508.57727	87.46748	38.24263	1465.98901	-118.72746	1710.69409																					 
150	1.490	1401.16968	-15.43318	1676.91174	1532.03149	-8.72910	1660.60278	1405.08533	-147.52437	1620.35583	1534.24744	-139.83560	1609.32886	1457.46936	-143.93669	1461.55005	1461.24756	-177.32683	1132.63281	1446.55872	-34.86249	1384.46606	1429.31323	2.33335	1208.44885	1536.88159	-211.31813	1288.07898	1291.34814	-102.87400	1422.84949	1217.42664	-96.62222	1221.29822	1207.64917	-88.02360	1108.51599	1187.14294	-36.14676	966.89606	1228.61755	47.88176	869.12354	1194.10461	-11.17842	850.06787	1194.03406	47.01134	779.87360	1610.61035	-66.76772	1411.26196	1694.01575	-89.39432	1209.05090	1700.63464	-74.31973	1087.59741	1714.62756	-57.29020	968.21027	1680.52686	-1.23331	828.39532	1720.56262	-54.32747	829.60297	1719.68774	-19.99721	752.01727	1329.96460	-12.08331	971.69458	1549.70618	16.34364	982.01105	1377.50574	-165.86954	995.85345	1543.71814	-138.45660	1005.80139	1290.63489	-47.95488	650.89966	1313.67627	-21.26637	490.88623	1329.12805	-190.91115	310.86328	1370.05054	-299.73459	178.32159	1421.16663	-336.22894	185.67192	1355.43921	-206.46402	70.80918	1610.96277	-28.79235	647.59509	1588.61487	-28.65145	521.50568	1583.18945	-70.07842	257.14215	1529.84229	-70.76989	70.46332	1486.67615	-110.13533	45.99211	1508.91516	87.07291	38.35619	1466.77454	-113.26877	1711.14038																					 
151	1.500	1401.64734	-10.27169	1677.14172	1532.50818	-3.16479	1661.04150	1406.05249	-142.39983	1620.62866	1535.14612	-134.27722	1609.78284	1458.54260	-138.56816	1461.82788	1462.38538	-172.13501	1132.91553	1447.33789	-29.62104	1384.81641	1430.09363	7.53213	1208.79199	1538.23315	-205.94519	1288.50513	1292.31226	-98.17773	1423.26196	1217.88831	-92.97482	1221.80176	1207.88391	-85.13842	1109.03601	1186.35681	-35.93742	966.56360	1226.92944	45.81631	866.43445	1192.17993	-13.50104	849.23523	1191.47913	42.63037	777.51648	1611.44922	-61.12846	1411.50940	1694.86975	-82.41442	1209.24707	1701.51184	-66.67970	1087.87659	1715.45569	-48.83014	968.60406	1681.40955	8.15051	829.27301	1721.35437	-44.99084	830.02209	1720.41052	-10.03539	752.62628	1331.10510	-6.72995	972.19342	1550.81775	21.03897	981.90063	1378.22375	-160.70354	996.40326	1544.53577	-133.60736	1006.02838	1291.08093	-40.12888	651.84027	1314.52856	-12.08070	492.13895	1329.30310	-178.24910	308.65018	1369.75940	-283.69598	173.14551	1420.96143	-320.34305	179.14526	1354.69592	-187.57159	68.88023	1611.49060	-26.66119	647.56781	1589.22864	-27.36656	521.43085	1583.51868	-70.02193	257.21072	1529.95801	-71.01585	70.48251	1486.77869	-110.40322	46.15950	1508.89429	86.96751	38.40257	1467.42773	-107.87513	1711.51343																					 
152	1.510	1402.03540	-5.13020	1677.37537	1532.94055	2.30832	1661.46948	1406.96851	-137.26170	1620.84155	1536.09949	-128.79654	1610.23132	1459.55493	-133.26785	1462.10583	1463.46753	-167.01283	1133.22778	1448.11182	-24.41995	1385.08362	1430.88611	12.69227	1209.02234	1539.46655	-200.53458	1288.68115	1293.25671	-93.22461	1423.56030	1218.27832	-89.37842	1222.18335	1207.96729	-82.46435	1109.43787	1185.44043	-35.91014	966.24823	1225.38269	43.80079	864.04822	1190.32825	-16.00050	848.46802	1189.22461	38.33504	775.33997	1612.27319	-55.58165	1411.74426	1695.68115	-75.64880	1209.36865	1702.26831	-59.36164	1088.06421	1716.25586	-40.39348	968.94678	1682.17261	17.59206	830.18610	1721.91980	-35.63800	830.33118	1720.91003	-0.09970	753.22235	1332.27795	-1.36493	972.66876	1551.94250	25.66667	981.74976	1378.89319	-155.58247	996.88293	1545.28833	-128.95947	1006.22180	1291.39429	-32.41288	652.72223	1315.36145	-3.10830	493.37222	1329.41724	-165.34048	306.14197	1369.37500	-267.15085	167.58231	1420.69543	-303.93030	172.17247	1353.15161	-168.17105	66.55632	1612.17664	-24.20701	647.55554	1589.79907	-25.46096	521.25098	1583.68018	-69.80298	257.33859	1529.95813	-71.09559	70.45736	1486.75366	-110.36855	46.09414	1508.97852	86.86541	38.40027	1468.08447	-102.61187	1711.81348																					 
153	1.520	1402.43005	-0.11602	1677.52087	1533.31238	7.76191	1661.84485	1407.86182	-132.15781	1620.95886	1536.89441	-123.26451	1610.45361	1460.51343	-127.95499	1462.36060	1464.50256	-161.85367	1133.46960	1448.85559	-19.22904	1385.28015	1431.72681	17.81763	1209.18872	1540.74731	-195.31679	1288.89355	1294.09766	-88.19281	1423.72681	1218.59326	-85.97816	1222.46362	1207.83606	-80.06179	1109.77759	1184.49060	-36.02590	965.92584	1223.88354	41.37252	861.59119	1188.37732	-18.30247	847.86523	1187.42578	34.29629	773.25922	1613.08154	-50.04476	1411.91907	1696.45862	-68.97478	1209.53687	1703.16382	-51.72799	1088.31006	1716.90710	-32.25848	969.32404	1682.87732	26.94187	831.02747	1722.57483	-26.37595	830.71527	1721.30798	9.78353	753.81396	1333.49902	3.96894	973.07568	1553.20923	30.16302	981.52454	1379.48767	-150.39659	997.27808	1545.99268	-124.40268	1006.27124	1291.84595	-24.62495	653.51569	1316.09338	5.57681	494.52734	1329.50720	-152.20915	303.36536	1368.89294	-250.07649	161.67915	1420.37097	-286.79562	164.73500	1351.06885	-147.62924	64.41383	1612.72070	-21.60341	647.27350	1590.27844	-23.64916	521.02020	1583.94202	-69.09892	257.33325	1530.13611	-71.20404	70.69873	1486.97241	-110.87334	46.54710	1508.61462	87.18970	38.31516	1468.67163	-97.37357	1712.05078																					 
